<?xml version="1.0" encoding="UTF-8"?>
<svg width="30px" height="30px" viewBox="0 0 30 30" version="1.1" xmlns="http://www.w3.org/2000/svg" xmlns:xlink="http://www.w3.org/1999/xlink">
    <title>添加</title>
    <g id="控件" stroke="none" stroke-width="1" fill="none" fill-rule="evenodd">
        <g id="分级旋流器、浓缩旋流器_2D_灰" transform="translate(-30, -30)" fill-rule="nonzero">
            <g id="添加" transform="translate(30, 30)">
                <path d="M15,0 C6.71571905,0 0,6.71571905 0,15 C0,23.2842809 6.71571905,30 15,30 C23.2842809,30 30,23.2842809 30,15 C30,6.71571905 23.2842809,0 15,0 Z" id="形状" fill="#1D33A2" opacity="0.596163795"></path>
                <path d="M24.0468227,15 C24.044435,15.8117356 23.3869865,16.4691841 22.5752508,16.4715719 L16.4715719,16.4715719 L16.4715719,22.5752508 C16.4691841,23.3869865 15.8117356,24.044435 15,24.0468227 C14.1882644,24.044435 13.5308159,23.3869865 13.5284281,22.5752508 L13.5284281,16.4715719 L7.42474916,16.4715719 C6.61301354,16.4691841 5.95556501,15.8117356 5.95317727,15 C5.95556501,14.1882644 6.61301354,13.5308159 7.42474916,13.5284281 L13.5284281,13.5284281 L13.5284281,7.42474916 C13.5308159,6.61301354 14.1882644,5.95556501 15,5.95317727 C15.8117356,5.95556501 16.4691841,6.61301354 16.4715719,7.42474916 L16.4715719,13.5284281 L22.5752508,13.5284281 C23.3869865,13.5308159 24.044435,14.1882644 24.0468227,15 Z" id="路径" fill="#FFFFFF"></path>
            </g>
        </g>
    </g>
</svg>